<?xml version="1.0" encoding="UTF-8"?>
<svg xmlns="http://www.w3.org/2000/svg"
 width="270" height="270" viewBox="0 0 270 270"
 preserveAspectRatio="xMidYMid meet">
 <g transform="translate(0,270) scale(0.1,-0.1)" fill="url(#catGrad)" stroke="none">
  <defs>
    <linearGradient id="catGrad" x1="0%" y1="0%" x2="100%" y2="100%">
      <stop offset="0%" style="stop-color:#f472b6;stop-opacity:1" />
      <stop offset="100%" style="stop-color:#be185d;stop-opacity:1" />
    </linearGradient>
  </defs>
  <path d="M1542 2605 c-70 -20 -98 -35 -156 -86 -89 -79 -146 -199 -146 -309 0 -94 55 -236 129 -335 77 -102 198 -204 421 -356 185 -126 281 -241 335 -404 67 -201 31 -475 -86 -650 -56 -83 -144 -161 -224 -199 -51 -25 -125 -43 -125 -32 0 4 21 43 46 87 84 149 143 329 164 504 30 246 -59 490 -217 594 -75 50 -155 69 -336 82 -89 6 -170 15 -179 20 -21 11 -24 29 -43 220 -16 167 -29 212 -70 250 -53 50 -64 79 -63 165 1 82 -22 164 -46 164 -6 0 -29 -23 -51 -51 -53 -68 -104 -96 -195 -109 -87 -12 -121 -32 -179 -100 -23 -28 -60 -59 -81 -70 -53 -27 -66 -66 -37 -118 62 -112 75 -122 217 -163 87 -24 88 -35 14 -204 -56 -131 -65 -196 -40 -308 20 -91 65 -182 151 -306 100 -146 125 -244 125 -493 0 -139 -1 -148 -22 -168 -12 -11 -27 -20 -34 -20 -19 0 -55 -51 -52 -74 7 -47 103 -61 159 -23 41 28 73 101 92 213 l13 78 13 -47 c8 -26 26 -67 42 -92 l28 -44 -35 -35 c-46 -46 -45 -79 3 -105 42 -22 548 -5 682 23 194 41 339 163 450 383 96 189 125 435 76 653 -9 41 -37 117 -62 169 -64 133 -151 218 -403 391 -213 147 -327 250 -374 339 -75 140 -27 315 105 384 47 25 62 28 113 24 76 -7 132 -44 165 -110 21 -43 22 -52 12 -94 -7 -25 -30 -75 -52 -112 -53 -88 -58 -110 -29 -133 58 -47 161 8 218 117 37 72 43 206 12 288 -27 73 -100 149 -176 184 -71 32 -193 40 -272 18z"/>
 </g>
</svg>
